<?xml version="1.0" standalone="no"?>
<!DOCTYPE svg PUBLIC "-//W3C//DTD SVG 20010904//EN"
 "http://www.w3.org/TR/2001/REC-SVG-20010904/DTD/svg10.dtd">
<svg version="1.0" xmlns="http://www.w3.org/2000/svg"
 width="2500.000000pt" height="1665.000000pt" viewBox="0 0 2500.000000 1665.000000"
 preserveAspectRatio="xMidYMid meet">

<g transform="translate(0.000000,1665.000000) scale(0.100000,-0.100000)"
fill="#000000" stroke="none">
<path d="M1522 16629 c-381 -27 -694 -128 -912 -295 -352 -267 -533 -816 -580
-1759 -14 -290 -14 -14067 1 -14171 20 -148 77 -250 174 -316 106 -71 65 -69
1300 -66 l1100 3 54 22 c114 47 178 117 223 243 l23 65 5 6340 5 6340 25 50
c14 29 40 60 60 73 34 23 42 23 190 20 127 -3 161 -7 190 -22 48 -25 88 -64
110 -107 11 -20 931 -2468 2045 -5440 1115 -2972 2060 -5485 2100 -5584 176
-432 324 -723 519 -1020 357 -542 719 -813 1237 -924 243 -52 279 -54 1152
-58 490 -3 817 -1 817 5 0 8 -5235 14570 -5392 14997 -115 316 -253 621 -367
812 -169 283 -398 512 -626 626 -181 90 -440 145 -790 167 -190 12 -2496 11
-2663 -1z"/>
<path d="M6434 16603 c63 -177 5335 -14352 5391 -14493 276 -700 559 -1187
890 -1529 311 -320 612 -465 1125 -538 110 -16 203 -18 775 -18 707 0 751 3
1015 61 240 53 450 144 630 271 108 77 314 278 414 403 232 292 464 708 671
1205 37 88 989 2619 2116 5625 1466 3910 2058 5475 2078 5500 15 19 48 46 72
60 41 23 55 25 199 28 185 4 209 -5 250 -84 l25 -48 5 -6336 5 -6335 21 -66
c41 -131 115 -218 223 -261 l56 -23 1135 0 1135 0 56 23 c121 49 199 138 235
269 18 66 19 266 19 7203 0 6817 -1 7144 -18 7329 -72 770 -242 1230 -544
1472 -173 138 -418 237 -700 283 -209 34 -397 38 -1653 34 -1329 -4 -1334 -5
-1605 -59 -595 -120 -962 -536 -1318 -1494 -31 -82 -983 -2722 -2116 -5865
-1133 -3143 -2072 -5748 -2086 -5788 -53 -141 -147 -214 -280 -215 -128 -1
-212 57 -269 185 -13 29 -936 2584 -2051 5678 -1115 3094 -2065 5729 -2110
5855 -401 1108 -751 1521 -1392 1645 -269 52 -298 53 -1390 57 l-1023 4 14
-38z"/>
</g>
</svg>
